<svg width="17" height="20" viewBox="0 0 17 20" fill="none" xmlns="http://www.w3.org/2000/svg">
<g clip-path="url(#clip0_1_22)">
    <path d="M8.18182 18.1818C12.7007 18.1818 16.3636 14.5189 16.3636 10C16.3636 5.48112 12.7007 1.81818 8.18182 1.81818C3.66294 1.81818 0 5.48112 0 10C0 14.5189 3.66294 18.1818 8.18182 18.1818Z" fill="#FC3F1D"/>
    <path d="M10.7937 14.5818H9.16992V6.54979H8.44678C7.12447 6.54979 6.42902 7.21818 6.42902 8.20692C6.42902 9.33161 6.913 9.84958 7.90174 10.518L8.71992 11.0636L6.36734 14.5818H4.6158L6.72923 11.4413C5.51328 10.5765 4.83419 9.72434 4.83419 8.30259C4.83419 6.50888 6.07468 5.29545 8.44048 5.29545H10.7931L10.7937 14.5818Z" fill="white"/>
</g>
<defs>
    <clipPath id="clip0_1_22">
    <rect width="16.3636" height="20" fill="white"/>
    </clipPath>
</defs>
</svg>