<svg width="16" height="20" viewBox="0 0 16 20" fill="none" xmlns="http://www.w3.org/2000/svg">
<g clip-path="url(#clip0_1_25)">
    <path d="M7.7255 6.93615C7.7225 6.96015 7.7225 6.98741 7.7225 7.01417C7.7225 7.11819 7.74326 7.21821 7.78077 7.31024L7.81428 7.37925L7.94681 7.71833L8.63522 9.4745L9.23561 11.0081C9.4069 11.3177 9.68122 11.5607 10.012 11.6903L10.1148 11.728C10.1188 11.7293 10.1256 11.7293 10.1311 11.7308L11.7767 12.2967V12.2979L12.4059 12.514L12.4489 12.5285C12.4504 12.5285 12.4529 12.53 12.4544 12.53C12.5784 12.5612 12.6999 12.6032 12.816 12.6545C13.0843 12.7703 13.3276 12.9353 13.5354 13.1366C13.6192 13.2166 13.6962 13.3029 13.7674 13.3949C13.8281 13.4722 13.8836 13.5534 13.9335 13.638C14.153 14.0026 14.2791 14.4312 14.2791 14.8875C14.2791 14.9691 14.2751 15.0478 14.2668 15.1278C14.2641 15.1631 14.2598 15.1971 14.2546 15.2309V15.2336C14.2491 15.2694 14.2423 15.3064 14.2356 15.3426C14.2285 15.3779 14.222 15.4129 14.214 15.4479C14.2128 15.4519 14.2113 15.4562 14.2098 15.4602C14.2023 15.4957 14.1928 15.5307 14.183 15.5659C14.1743 15.5992 14.1633 15.6335 14.151 15.6657C14.1402 15.701 14.1276 15.7357 14.1133 15.7697C14.101 15.8048 14.0865 15.8403 14.0703 15.8738C14.0258 15.9765 13.9727 16.0753 13.9132 16.1696C13.8365 16.2934 13.7489 16.4102 13.6514 16.5184C14.4236 15.6882 14.937 14.6162 15.0647 13.4299C15.0863 13.2354 15.0973 13.0381 15.0973 12.8395C15.0973 12.7128 15.0918 12.5872 15.0835 12.4612C14.9862 11.0386 14.3386 9.76632 13.3501 8.85835C13.0775 8.60604 12.7797 8.38149 12.4594 8.19095L11.8542 7.88162L8.78776 6.308C8.6935 6.26758 8.59199 6.24682 8.48944 6.24698C8.09234 6.24698 7.76451 6.54981 7.7255 6.93615Z" fill="#7F7F7F"/>
    <path d="M7.7255 6.93615C7.7225 6.96015 7.7225 6.98741 7.7225 7.01417C7.7225 7.11819 7.74326 7.21821 7.78077 7.31024L7.81428 7.37925L7.94681 7.71833L8.63522 9.4745L9.23561 11.0081C9.4069 11.3177 9.68122 11.5607 10.012 11.6903L10.1148 11.728C10.1188 11.7293 10.1256 11.7293 10.1311 11.7308L11.7767 12.2967V12.2979L12.4059 12.514L12.4489 12.5285C12.4504 12.5285 12.4529 12.53 12.4544 12.53C12.5784 12.5612 12.6999 12.6032 12.816 12.6545C13.0843 12.7703 13.3276 12.9353 13.5354 13.1366C13.6192 13.2166 13.6962 13.3029 13.7674 13.3949C13.8281 13.4722 13.8836 13.5534 13.9335 13.638C14.153 14.0026 14.2791 14.4312 14.2791 14.8875C14.2791 14.9691 14.2751 15.0478 14.2668 15.1278C14.2641 15.1631 14.2598 15.1971 14.2546 15.2309V15.2336C14.2491 15.2694 14.2423 15.3064 14.2356 15.3426C14.2285 15.3779 14.222 15.4129 14.214 15.4479C14.2128 15.4519 14.2113 15.4562 14.2098 15.4602C14.2023 15.4957 14.1928 15.5307 14.183 15.5659C14.1743 15.5992 14.1633 15.6335 14.151 15.6657C14.1402 15.701 14.1276 15.7357 14.1133 15.7697C14.101 15.8048 14.0865 15.8403 14.0703 15.8738C14.0258 15.9765 13.9727 16.0753 13.9132 16.1696C13.8365 16.2934 13.7489 16.4102 13.6514 16.5184C14.4236 15.6882 14.937 14.6162 15.0647 13.4299C15.0863 13.2354 15.0973 13.0381 15.0973 12.8395C15.0973 12.7128 15.0918 12.5872 15.0835 12.4612C14.9862 11.0386 14.3386 9.76632 13.3501 8.85835C13.0775 8.60604 12.7797 8.38149 12.4594 8.19095L11.8542 7.88162L8.78776 6.308C8.6935 6.26758 8.59199 6.24682 8.48944 6.24698C8.09234 6.24698 7.76451 6.54981 7.7255 6.93615Z" fill="url(#paint0_linear_1_25)"/>
    <path d="M2.26545 -2.38419e-07C1.82909 0.0077516 1.47876 0.364837 1.47876 0.80144V14.7813C1.48051 14.8788 1.48601 14.9751 1.49301 15.0728C1.49926 15.1243 1.50602 15.1779 1.51552 15.2299C1.71482 16.3519 2.69105 17.2033 3.86983 17.2033C4.28318 17.2033 4.67077 17.0981 5.00985 16.915C5.01185 16.9135 5.01535 16.9115 5.0171 16.9115L5.13913 16.8377L5.63375 16.5467L6.2629 16.1733L6.2644 3.75214C6.2644 2.92669 5.8513 2.19902 5.2189 1.76667C5.20389 1.75767 5.18939 1.74817 5.17614 1.73741L2.72806 0.136532C2.60403 0.0545127 2.45449 0.00300047 2.2942 -2.38419e-07H2.26545Z" fill="#7F7F7F"/>
    <path d="M2.26545 -2.38419e-07C1.82909 0.0077516 1.47876 0.364837 1.47876 0.80144V14.7813C1.48051 14.8788 1.48601 14.9751 1.49301 15.0728C1.49926 15.1243 1.50602 15.1779 1.51552 15.2299C1.71482 16.3519 2.69105 17.2033 3.86983 17.2033C4.28318 17.2033 4.67077 17.0981 5.00985 16.915C5.01185 16.9135 5.01535 16.9115 5.0171 16.9115L5.13913 16.8377L5.63375 16.5467L6.2629 16.1733L6.2644 3.75214C6.2644 2.92669 5.8513 2.19902 5.2189 1.76667C5.20389 1.75767 5.18939 1.74817 5.17614 1.73741L2.72806 0.136532C2.60403 0.0545127 2.45449 0.00300047 2.2942 -2.38419e-07H2.26545Z" fill="url(#paint1_linear_1_25)"/>
    <path d="M11.9725 12.7715L6.34392 16.1078L6.2629 16.1566V16.1743L5.63375 16.5469L5.13938 16.8387L5.0181 16.912L5.00985 16.916C4.67152 17.0998 4.28368 17.2038 3.87058 17.2038C2.69205 17.2038 1.71457 16.3529 1.51602 15.2304C1.61029 16.0516 1.89011 16.816 2.31221 17.4819C3.18142 18.854 4.65127 19.8085 6.35167 19.9742H7.39142C8.31114 19.8782 9.07907 19.5099 9.88626 19.0125L11.1276 18.2533C11.6867 17.895 13.2043 17.0135 13.6514 16.5189C13.7487 16.4106 13.8364 16.2946 13.9132 16.1703C13.9727 16.0758 14.0257 15.977 14.0703 15.8743C14.0853 15.8393 14.0995 15.8053 14.1133 15.7705C14.1263 15.736 14.1385 15.7012 14.151 15.666C14.1743 15.5985 14.1928 15.5307 14.2105 15.4609C14.2195 15.4212 14.2278 15.3819 14.236 15.3429C14.263 15.1956 14.2778 15.0443 14.2778 14.8875C14.2778 14.4312 14.1518 14.0026 13.9335 13.6385C13.8835 13.5535 13.8284 13.4722 13.7674 13.3954C13.6962 13.3029 13.6191 13.2171 13.5354 13.1371C13.3276 12.9358 13.085 12.7708 12.816 12.6548C12.6999 12.6035 12.5789 12.5612 12.4544 12.5305C12.4529 12.5305 12.4504 12.529 12.4489 12.529L12.4059 12.5145L11.9725 12.7715Z" fill="#7F7F7F"/>
    <path d="M11.9725 12.7715L6.34392 16.1078L6.2629 16.1566V16.1743L5.63375 16.5469L5.13938 16.8387L5.0181 16.912L5.00985 16.916C4.67152 17.0998 4.28368 17.2038 3.87058 17.2038C2.69205 17.2038 1.71457 16.3529 1.51602 15.2304C1.61029 16.0516 1.89011 16.816 2.31221 17.4819C3.18142 18.854 4.65127 19.8085 6.35167 19.9742H7.39142C8.31114 19.8782 9.07907 19.5099 9.88626 19.0125L11.1276 18.2533C11.6867 17.895 13.2043 17.0135 13.6514 16.5189C13.7487 16.4106 13.8364 16.2946 13.9132 16.1703C13.9727 16.0758 14.0257 15.977 14.0703 15.8743C14.0853 15.8393 14.0995 15.8053 14.1133 15.7705C14.1263 15.736 14.1385 15.7012 14.151 15.666C14.1743 15.5985 14.1928 15.5307 14.2105 15.4609C14.2195 15.4212 14.2278 15.3819 14.236 15.3429C14.263 15.1956 14.2778 15.0443 14.2778 14.8875C14.2778 14.4312 14.1518 14.0026 13.9335 13.6385C13.8835 13.5535 13.8284 13.4722 13.7674 13.3954C13.6962 13.3029 13.6191 13.2171 13.5354 13.1371C13.3276 12.9358 13.085 12.7708 12.816 12.6548C12.6999 12.6035 12.5789 12.5612 12.4544 12.5305C12.4529 12.5305 12.4504 12.529 12.4489 12.529L12.4059 12.5145L11.9725 12.7715Z" fill="url(#paint2_linear_1_25)"/>
    <path opacity="0.15" d="M14.2778 14.8875C14.2778 15.0443 14.263 15.1959 14.2358 15.3431C14.2278 15.3822 14.2195 15.4212 14.2103 15.4607C14.1928 15.5307 14.1743 15.5985 14.151 15.6662C14.1388 15.7012 14.1263 15.7362 14.1133 15.7702C14.0998 15.8053 14.0853 15.8393 14.07 15.8743C14.0254 15.9767 13.9731 16.0756 13.9135 16.1701C13.8368 16.294 13.7491 16.4106 13.6514 16.5187C13.2043 17.0135 11.6867 17.895 11.1276 18.2533L9.88626 19.0125C8.97629 19.5731 8.11659 19.97 7.03233 19.9972C6.98107 19.9987 6.93081 20 6.88105 20C6.81103 20 6.74201 19.9988 6.67275 19.996C4.83681 19.926 3.23568 18.9395 2.31221 17.4819C1.8801 16.8012 1.60789 16.0314 1.51602 15.2304C1.71457 16.3529 2.69205 17.2038 3.87058 17.2038C4.28368 17.2038 4.67152 17.0996 5.00985 16.916L5.0181 16.9118L5.13938 16.8387L5.63375 16.5469L6.2629 16.1743V16.1566L6.34392 16.1078L11.9725 12.7713L12.4059 12.5145L12.4489 12.529C12.4501 12.529 12.4529 12.5305 12.4544 12.5305C12.5789 12.5612 12.7002 12.6035 12.816 12.6548C13.085 12.7708 13.3273 12.9358 13.5354 13.1371C13.6191 13.2173 13.6967 13.3036 13.7674 13.3954C13.8284 13.4722 13.8835 13.5535 13.9335 13.6385C14.1518 14.0026 14.2778 14.4312 14.2778 14.8875Z" fill="#7F7F7F"/>
    <path opacity="0.15" d="M14.2778 14.8875C14.2778 15.0443 14.263 15.1959 14.2358 15.3431C14.2278 15.3822 14.2195 15.4212 14.2103 15.4607C14.1928 15.5307 14.1743 15.5985 14.151 15.6662C14.1388 15.7012 14.1263 15.7362 14.1133 15.7702C14.0998 15.8053 14.0853 15.8393 14.07 15.8743C14.0254 15.9767 13.9731 16.0756 13.9135 16.1701C13.8368 16.294 13.7491 16.4106 13.6514 16.5187C13.2043 17.0135 11.6867 17.895 11.1276 18.2533L9.88626 19.0125C8.97629 19.5731 8.11659 19.97 7.03233 19.9972C6.98107 19.9987 6.93081 20 6.88105 20C6.81103 20 6.74201 19.9988 6.67275 19.996C4.83681 19.926 3.23568 18.9395 2.31221 17.4819C1.8801 16.8012 1.60789 16.0314 1.51602 15.2304C1.71457 16.3529 2.69205 17.2038 3.87058 17.2038C4.28368 17.2038 4.67152 17.0996 5.00985 16.916L5.0181 16.9118L5.13938 16.8387L5.63375 16.5469L6.2629 16.1743V16.1566L6.34392 16.1078L11.9725 12.7713L12.4059 12.5145L12.4489 12.529C12.4501 12.529 12.4529 12.5305 12.4544 12.5305C12.5789 12.5612 12.7002 12.6035 12.816 12.6548C13.085 12.7708 13.3273 12.9358 13.5354 13.1371C13.6191 13.2173 13.6967 13.3036 13.7674 13.3954C13.8284 13.4722 13.8835 13.5535 13.9335 13.6385C14.1518 14.0026 14.2778 14.4312 14.2778 14.8875Z" fill="url(#paint3_linear_1_25)"/>
</g>
<defs>
    <linearGradient id="paint0_linear_1_25" x1="8.63605" y1="7.10341" x2="15.0294" y2="14.2287" gradientUnits="userSpaceOnUse">
    <stop stop-color="#37BDFF"/>
    <stop offset="0.25" stop-color="#26C6F4"/>
    <stop offset="0.5" stop-color="#15D0E9"/>
    <stop offset="0.75" stop-color="#3BD6DF"/>
    <stop offset="1" stop-color="#62DCD4"/>
    </linearGradient>
    <linearGradient id="paint1_linear_1_25" x1="4.19988" y1="16.901" x2="3.99426" y2="1.08948" gradientUnits="userSpaceOnUse">
    <stop stop-color="#1B48EF"/>
    <stop offset="0.5" stop-color="#2080F1"/>
    <stop offset="1" stop-color="#26B8F4"/>
    </linearGradient>
    <linearGradient id="paint2_linear_1_25" x1="7.89686" y1="16.2443" x2="23.3708" y2="16.2443" gradientUnits="userSpaceOnUse">
    <stop stop-color="#39D2FF"/>
    <stop offset="0.5" stop-color="#248FFA"/>
    <stop offset="1" stop-color="#104CF5"/>
    </linearGradient>
    <linearGradient id="paint3_linear_1_25" x1="7.89686" y1="16.2443" x2="23.3708" y2="16.2443" gradientUnits="userSpaceOnUse">
    <stop stop-color="white"/>
    <stop offset="1"/>
    </linearGradient>
    <clipPath id="clip0_1_25">
    <rect width="15.104" height="20" fill="white" transform="translate(0.363647)"/>
    </clipPath>
</defs>
</svg>