<svg width="43" height="42" fill="none" xmlns="http://www.w3.org/2000/svg"><g clip-path="url(#a)"><path fill-rule="evenodd" clip-rule="evenodd" d="M21.374 0C9.554 0 0 9.625 0 21.532c0 9.519 6.122 17.576 14.615 20.427 1.062.215 1.45-.463 1.45-1.033 0-.5-.035-2.21-.035-3.993-5.945 1.284-7.183-2.567-7.183-2.567-.956-2.495-2.372-3.137-2.372-3.137-1.946-1.319.142-1.319.142-1.319 2.159.143 3.292 2.21 3.292 2.21 1.91 3.28 4.989 2.353 6.227 1.783.177-1.39.744-2.353 1.345-2.888-4.742-.499-9.731-2.353-9.731-10.624 0-2.352.849-4.277 2.194-5.775-.213-.534-.956-2.745.212-5.704 0 0 1.805-.57 5.874 2.21a20.55 20.55 0 0 1 5.344-.713c1.804 0 3.644.25 5.343.714 4.07-2.781 5.874-2.21 5.874-2.21 1.168 2.958.425 5.169.212 5.703 1.38 1.498 2.194 3.423 2.194 5.775 0 8.271-4.989 10.09-9.766 10.624.778.677 1.45 1.96 1.45 3.993 0 2.887-.035 5.205-.035 5.917 0 .571.39 1.249 1.451 1.035 8.493-2.853 14.615-10.91 14.615-20.428C42.747 9.625 33.157 0 21.374 0Z" fill="#24292F"/></g><defs><clipPath id="a"><path fill="#fff" d="M0 0h42.875v42H0z"/></clipPath></defs></svg>